<svg width="57" height="56" viewBox="0 0 57 56" fill="none" xmlns="http://www.w3.org/2000/svg">
<path opacity="0.2" d="M61.9287 12.1872C58.2863 9.36379 54.75 6.4383 50.9839 3.73897C46.0887 0.234318 40.1345 -1.44814 33.8898 -2.44149C33.0505 -2.57599 32.1078 -2.26133 31.0974 -1.80146C44.3742 0.286525 52.6937 7.3545 59.3714 16.1411C59.2155 16.2841 59.0631 16.4322 58.9072 16.5751C58.0282 15.6261 57.1196 14.6879 56.2679 13.719C50.3383 6.96544 42.2009 3.22986 32.5081 1.4141C29.7502 0.896628 28.3169 2.71361 26.1369 3.09121C28.1344 3.08454 30.1845 2.83402 32.1211 3.1127C40.4485 4.30456 46.0687 8.81493 51.0339 14.0591C51.6534 14.7122 52.1873 15.4199 52.6287 16.2846C46.7603 11.0391 40.1496 6.91069 31.7893 6.25728C35.9867 9.10876 40.5426 12.2088 45.0998 15.3048C44.8882 15.5394 44.6779 15.7699 44.4663 16.0044C43.4541 15.4676 42.4405 14.9349 41.4309 14.39C37.5677 12.3145 33.7573 10.1728 29.8286 8.18666C27.2822 6.90184 24.4503 6.53252 21.4723 7.21361C25.0779 8.29196 29.0391 8.91653 32.1947 10.5793C35.3455 12.2409 37.6929 14.9499 40.0139 17.5144C36.5012 15.7767 33.1345 13.7812 29.44 12.3799C25.7504 10.9796 21.8111 9.81849 17.4264 10.5206C27.4703 12.527 35.2941 16.9422 40.6146 24.3357C33.559 17.2844 24.383 14.128 13.5156 13.9268C24.4429 15.8826 33.0719 20.3598 38.081 28.9273C34.6452 25.0929 30.2945 22.1337 25.0605 20.2431C20.05 18.4367 15.0403 16.2884 9.09731 17.19C28.8998 21.0831 38.7694 32.6971 43.9409 48.0361C44.2237 47.969 44.5004 47.9049 44.7832 47.8378C45.6453 45.9459 46.5122 44.0551 47.359 42.1944C47.5131 42.6228 47.7345 43.2307 48.1611 44.3997C61.6424 32.681 74.7972 21.2449 88.0019 9.76785C89.0604 12.0042 88.0751 13.6955 86.3227 15.2553C78.4341 22.2912 70.613 29.3767 62.6715 36.3662C57.262 41.1288 51.6646 45.7456 46.1925 50.4596C44.3888 52.0167 42.7223 53.6822 40.8822 55.4002C40.9933 51.6781 41.4805 48.3601 41.0578 45.1258C40.7238 42.587 39.7091 39.9402 38.2174 37.7029C34.0473 31.453 28.4737 26.2166 20.3539 23.2993C14.8415 21.3165 9.04603 20.2583 3.00691 20.229C2.17718 20.2265 1.35173 20.1947 -0.00120207 20.1627C1.23065 18.9853 2.17362 17.9907 3.2286 17.0859C16.2004 5.92531 29.3073 -5.13596 42.1213 -16.4226C47.2317 -20.9224 53.1525 -21.7553 59.972 -20.6169C68.5954 -19.1774 74.4025 -14.4695 79.5269 -8.99078C80.8852 -7.53679 82.106 -5.99642 83.233 -4.35993C76.4275 -9.7444 69.9954 -15.557 59.6182 -16.6932C63.8413 -13.4202 67.7934 -10.359 71.7455 -7.2978C71.5541 -7.09343 71.3578 -6.89015 71.1664 -6.68578C63.7574 -10.9136 56.3007 -15.0263 46.7742 -14.7217C51.9303 -13.5761 56.8642 -12.0986 61.047 -9.18544C65.0596 -6.39235 68.8767 -3.49542 71.0662 0.542895C61.6674 -8.27659 47.0002 -14.4029 41.8933 -10.9809C53.8761 -10.3196 61.1533 -4.35815 67.1699 3.11208C59.7875 -3.75202 50.9216 -8.07826 39.5122 -8.17032C44.4354 -6.88586 49.6105 -6.07387 53.4385 -2.80636C57.0908 0.309524 60.8489 3.34061 64.5586 6.40858C64.2907 6.70423 64.0228 6.9999 63.7562 7.29151C56.4766 0.545558 48.1057 -4.47203 37.737 -5.00425C41.8785 -3.01417 47.0605 -1.15674 51.2752 1.68991C55.5081 4.54493 58.7749 8.38514 62.4642 11.7908C62.2941 11.9132 62.1275 12.0408 61.9573 12.1633L61.9287 12.1872Z" fill="white"/>
</svg>
