<svg width="25" height="25" viewBox="0 0 25 25" fill="none" xmlns="http://www.w3.org/2000/svg">
<path fill-rule="evenodd" clip-rule="evenodd" d="M4.00237 4.00171H14.0065C14.5591 4.00171 15.007 4.44961 15.007 5.00213V20.0084H4.00237C3.44985 20.0084 3.00195 19.5605 3.00195 19.008V5.00213C3.00195 4.44961 3.44985 4.00171 4.00237 4.00171Z" stroke="#121212" stroke-width="1.5" stroke-linecap="round" stroke-linejoin="round"/>
<path fill-rule="evenodd" clip-rule="evenodd" d="M15.0059 8.00342H20.0079C20.5605 8.00342 21.0084 8.45132 21.0084 9.00383V19.008C21.0084 19.5605 20.5605 20.0084 20.0079 20.0084H15.0059V8.00342Z" stroke="#121212" stroke-width="1.5" stroke-linecap="round" stroke-linejoin="round"/>
<path d="M7.00216 7.87833C6.9331 7.87833 6.87711 7.93432 6.87711 8.00338C6.87711 8.07245 6.9331 8.12843 7.00216 8.12843C7.07123 8.12843 7.12721 8.07245 7.12721 8.00338C7.12721 7.93432 7.07123 7.87833 7.00216 7.87833" stroke="#121212" stroke-width="1.5" stroke-linecap="round" stroke-linejoin="round"/>
<path d="M11.0041 7.87833C10.9351 7.87833 10.8791 7.93432 10.8791 8.00338C10.8791 8.07245 10.9351 8.12843 11.0041 8.12843C11.0732 8.12843 11.1292 8.07245 11.1292 8.00338C11.1292 7.93432 11.0732 7.87833 11.0041 7.87833" stroke="#121212" stroke-width="1.5" stroke-linecap="round" stroke-linejoin="round"/>
<path d="M7.00216 11.88C6.9331 11.88 6.87711 11.936 6.87711 12.0051C6.87711 12.0742 6.9331 12.1301 7.00216 12.1301C7.07123 12.1301 7.12721 12.0742 7.12721 12.0051C7.12721 11.936 7.07123 11.88 7.00216 11.88" stroke="#121212" stroke-width="1.5" stroke-linecap="round" stroke-linejoin="round"/>
<path d="M11.0041 11.88C10.9351 11.88 10.8791 11.936 10.8791 12.0051C10.8791 12.0742 10.9351 12.1301 11.0041 12.1301C11.0732 12.1301 11.1292 12.0742 11.1292 12.0051C11.1292 11.936 11.0732 11.88 11.0041 11.88" stroke="#121212" stroke-width="1.5" stroke-linecap="round" stroke-linejoin="round"/>
<path d="M7.00216 15.8815C6.9331 15.8815 6.87711 15.9375 6.87711 16.0066C6.87711 16.0756 6.9331 16.1316 7.00216 16.1316C7.07123 16.1316 7.12721 16.0756 7.12721 16.0066C7.12721 15.9375 7.07123 15.8815 7.00216 15.8815" stroke="#121212" stroke-width="1.5" stroke-linecap="round" stroke-linejoin="round"/>
<path d="M11.0041 15.8815C10.9351 15.8815 10.8791 15.9375 10.8791 16.0066C10.8791 16.0756 10.9351 16.1316 11.0041 16.1316C11.0732 16.1316 11.1292 16.0756 11.1292 16.0066C11.1292 15.9375 11.0732 15.8815 11.0041 15.8815" stroke="#121212" stroke-width="1.5" stroke-linecap="round" stroke-linejoin="round"/>
<path d="M18.008 11.88C17.939 11.88 17.883 11.936 17.883 12.0051C17.883 12.0742 17.939 12.1301 18.008 12.1301C18.0771 12.1301 18.1331 12.0742 18.1331 12.0051C18.1331 11.936 18.0771 11.88 18.008 11.88" stroke="#121212" stroke-width="1.5" stroke-linecap="round" stroke-linejoin="round"/>
<path d="M18.008 15.8815C17.939 15.8815 17.883 15.9375 17.883 16.0066C17.883 16.0756 17.939 16.1316 18.008 16.1316C18.0771 16.1316 18.1331 16.0756 18.1331 16.0066C18.1331 15.9375 18.0771 15.8815 18.008 15.8815" stroke="#121212" stroke-width="1.5" stroke-linecap="round" stroke-linejoin="round"/>
</svg>
