<svg width="24" height="24" viewBox="0 0 24 24" fill="none" xmlns="http://www.w3.org/2000/svg">
<path d="M11.125 12.0049H15.301" stroke="#121212" stroke-width="1.5" stroke-linecap="round" stroke-linejoin="round"/>
<path d="M11.125 15.9951L17.125 16.0001" stroke="#121212" stroke-width="1.5" stroke-linecap="round" stroke-linejoin="round"/>
<rect x="3" y="3" width="18" height="18" rx="2" stroke="#121212" stroke-width="1.5" stroke-linecap="round" stroke-linejoin="round"/>
<path d="M11.125 7.99487H17.125" stroke="#121212" stroke-width="1.5" stroke-linecap="round" stroke-linejoin="round"/>
<path d="M7.12421 7.75011C6.98621 7.75066 6.87474 7.86288 6.8751 8.00088C6.87547 8.13888 6.98754 8.2505 7.12554 8.25032C7.26354 8.25013 7.37531 8.13821 7.37531 8.00021C7.37558 7.93363 7.34918 7.8697 7.302 7.82271C7.25482 7.77572 7.19079 7.74957 7.12421 7.75011" stroke="#121212" stroke-width="1.5" stroke-linecap="round" stroke-linejoin="round"/>
<path d="M7.12421 11.7501C6.98621 11.7507 6.87474 11.8629 6.8751 12.0009C6.87547 12.1389 6.98754 12.2505 7.12554 12.2503C7.26354 12.2501 7.37531 12.1382 7.37531 12.0002C7.37558 11.9336 7.34918 11.8697 7.302 11.8227C7.25482 11.7757 7.19079 11.7496 7.12421 11.7501" stroke="#121212" stroke-width="1.5" stroke-linecap="round" stroke-linejoin="round"/>
<path d="M7.12421 15.7501C6.98621 15.7507 6.87474 15.8629 6.8751 16.0009C6.87547 16.1389 6.98754 16.2505 7.12554 16.2503C7.26354 16.2501 7.37531 16.1382 7.37531 16.0002C7.37558 15.9336 7.34918 15.8697 7.302 15.8227C7.25482 15.7757 7.19079 15.7496 7.12421 15.7501" stroke="#121212" stroke-width="1.5" stroke-linecap="round" stroke-linejoin="round"/>
</svg>
