<svg width="19" height="20" viewBox="0 0 19 20" fill="none" xmlns="http://www.w3.org/2000/svg">
<circle cx="4.25094" cy="3.00094" r="2.25094" stroke="#121212" stroke-width="1.5" stroke-linecap="round" stroke-linejoin="round"/>
<path fill-rule="evenodd" clip-rule="evenodd" d="M2.25063 13.7554V17.7571C2.25063 18.3093 2.69881 18.7575 3.25104 18.7575H5.25187C5.8041 18.7575 6.25229 18.3093 6.25229 17.7571V13.7554L7.30773 13.0521C7.58585 12.8671 7.75292 12.5539 7.75292 12.2198V8.75335C7.75292 8.20112 7.30473 7.75293 6.7525 7.75293H1.75042C1.19819 7.75293 0.75 8.20112 0.75 8.75335V12.2198C0.75 12.5539 0.91707 12.8671 1.19519 13.0521L2.25063 13.7554Z" stroke="#121212" stroke-width="1.5" stroke-linecap="round" stroke-linejoin="round"/>
<path d="M12.2541 0.75V6.25229" stroke="#121212" stroke-width="1.5" stroke-linecap="round" stroke-linejoin="round"/>
<path d="M15.2561 0.75V6.25229" stroke="#121212" stroke-width="1.5" stroke-linecap="round" stroke-linejoin="round"/>
<path d="M18.258 0.75V6.25229" stroke="#121212" stroke-width="1.5" stroke-linecap="round" stroke-linejoin="round"/>
</svg>
