<svg width="20" height="20" viewBox="0 0 20 20" fill="none" xmlns="http://www.w3.org/2000/svg">
<path fill-rule="evenodd" clip-rule="evenodd" d="M6.938 12.75L8.85 15.3C9.3 15.9 10.2 15.9 10.65 15.3L12.562 12.75H15.75C17.407 12.75 18.75 11.407 18.75 9.75V3.75C18.75 2.093 17.407 0.75 15.75 0.75H3.75C2.093 0.75 0.75 2.093 0.75 3.75V9.75C0.75 11.407 2.093 12.75 3.75 12.75H6.938Z" stroke="#121212" stroke-width="1.5" stroke-linecap="round" stroke-linejoin="round"/>
<path d="M4.75 18.75H14.75" stroke="#121212" stroke-width="1.5" stroke-linecap="round" stroke-linejoin="round"/>
<path d="M9.927 7.07306C10.025 7.17106 10.025 7.32906 9.927 7.42706C9.829 7.52506 9.671 7.52506 9.573 7.42706C9.475 7.32906 9.475 7.17106 9.573 7.07306C9.671 6.97506 9.829 6.97606 9.927 7.07306" stroke="#121212" stroke-width="1.5" stroke-linecap="round" stroke-linejoin="round"/>
<path d="M13.927 7.07306C14.025 7.17106 14.025 7.32906 13.927 7.42706C13.829 7.52506 13.671 7.52506 13.573 7.42706C13.475 7.32906 13.475 7.17106 13.573 7.07306C13.671 6.97506 13.829 6.97606 13.927 7.07306" stroke="#121212" stroke-width="1.5" stroke-linecap="round" stroke-linejoin="round"/>
<path d="M5.927 7.07306C6.025 7.17106 6.025 7.32906 5.927 7.42706C5.829 7.52506 5.671 7.52506 5.573 7.42706C5.475 7.32906 5.475 7.17106 5.573 7.07306C5.671 6.97506 5.829 6.97606 5.927 7.07306" stroke="#121212" stroke-width="1.5" stroke-linecap="round" stroke-linejoin="round"/>
</svg>
