<svg width="17" height="18" viewBox="0 0 17 18" fill="none" xmlns="http://www.w3.org/2000/svg">
<mask id="path-1-outside-1_4903_12855" maskUnits="userSpaceOnUse" x="-0.25" y="-0.5" width="17" height="18" fill="black">
<rect fill="white" x="-0.25" y="-0.5" width="17" height="18"/>
<path d="M11.5833 4.83333L8.25 1.5L4.91667 4.83333"/>
</mask>
<path d="M11.5833 4.83333L8.25 1.5L4.91667 4.83333" fill="#121212"/>
<path d="M0.835185 10.0196L1.55963 10.2137L0.835185 10.0196ZM4.08333 8.91667C4.49755 8.91667 4.83333 8.58088 4.83333 8.16667C4.83333 7.75245 4.49755 7.41667 4.08333 7.41667V8.16667V8.91667ZM2.60295 8.25185L2.79707 8.9763L2.60295 8.25185ZM15.6648 10.0196L14.9404 10.2137V10.2137L15.6648 10.0196ZM12.4167 7.41667C12.0025 7.41667 11.6667 7.75245 11.6667 8.16667C11.6667 8.58088 12.0025 8.91667 12.4167 8.91667V8.16667V7.41667ZM13.897 8.25185L13.7029 8.9763L13.897 8.25185ZM2.11502 16.2275L2.45552 15.5593L2.45552 15.5593L2.11502 16.2275ZM1.02248 15.135L0.354229 15.4755L0.354229 15.4755L1.02248 15.135ZM14.385 16.2275L14.0445 15.5593L14.0445 15.5593L14.385 16.2275ZM15.4775 15.135L16.1458 15.4755L16.1458 15.4755L15.4775 15.135ZM9 1.5C9 1.08579 8.66421 0.75 8.25 0.75C7.83579 0.75 7.5 1.08579 7.5 1.5H8.25H9ZM11.75 16.5V15.75H4.75V16.5V17.25H11.75V16.5ZM15.75 11.5H15V12.5H15.75H16.5V11.5H15.75ZM0.75 12.5H1.5V11.5H0.75H0V12.5H0.75ZM0.75 11.5H1.5C1.5 10.6767 1.50644 10.4122 1.55963 10.2137L0.835185 10.0196L0.110741 9.82551C-0.00644189 10.2628 0 10.7733 0 11.5H0.75ZM4.08333 8.16667V7.41667C3.35664 7.41667 2.84617 7.41022 2.40884 7.52741L2.60295 8.25185L2.79707 8.9763C2.99557 8.92311 3.26007 8.91667 4.08333 8.91667V8.16667ZM0.835185 10.0196L1.55963 10.2137C1.72145 9.60982 2.19316 9.13811 2.79707 8.9763L2.60295 8.25185L2.40884 7.52741C1.28729 7.82793 0.411259 8.70396 0.110741 9.82551L0.835185 10.0196ZM15.75 11.5H16.5C16.5 10.7733 16.5064 10.2628 16.3893 9.82551L15.6648 10.0196L14.9404 10.2137C14.9936 10.4122 15 10.6767 15 11.5H15.75ZM12.4167 8.16667V8.91667C13.2399 8.91667 13.5044 8.92311 13.7029 8.9763L13.897 8.25185L14.0912 7.52741C13.6538 7.41022 13.1434 7.41667 12.4167 7.41667V8.16667ZM15.6648 10.0196L16.3893 9.82551C16.0887 8.70396 15.2127 7.82793 14.0912 7.52741L13.897 8.25185L13.7029 8.9763C14.3068 9.13811 14.7786 9.60982 14.9404 10.2137L15.6648 10.0196ZM4.75 16.5V15.75C4.03756 15.75 3.54833 15.7494 3.16908 15.7184C2.79858 15.6882 2.59956 15.6327 2.45552 15.5593L2.11502 16.2275L1.77453 16.8958C2.16527 17.0949 2.58367 17.1756 3.04693 17.2134C3.50144 17.2506 4.06231 17.25 4.75 17.25V16.5ZM0.75 12.5H0C0 13.1877 -0.000583291 13.7486 0.0365513 14.2031C0.0744012 14.6663 0.155136 15.0847 0.354229 15.4755L1.02248 15.135L1.69074 14.7945C1.61735 14.6504 1.56184 14.4514 1.53157 14.0809C1.50058 13.7017 1.5 13.2124 1.5 12.5H0.75ZM2.11502 16.2275L2.45552 15.5593C2.12623 15.3915 1.85852 15.1238 1.69074 14.7945L1.02248 15.135L0.354229 15.4755C0.665817 16.087 1.163 16.5842 1.77453 16.8958L2.11502 16.2275ZM11.75 16.5V17.25C12.4377 17.25 12.9986 17.2506 13.4531 17.2134C13.9163 17.1756 14.3347 17.0949 14.7255 16.8958L14.385 16.2275L14.0445 15.5593C13.9004 15.6327 13.7014 15.6882 13.3309 15.7184C12.9517 15.7494 12.4624 15.75 11.75 15.75V16.5ZM15.75 12.5H15C15 13.2124 14.9994 13.7017 14.9684 14.0809C14.9382 14.4514 14.8827 14.6504 14.8093 14.7945L15.4775 15.135L16.1458 15.4755C16.3449 15.0847 16.4256 14.6663 16.4634 14.2031C16.5006 13.7486 16.5 13.1877 16.5 12.5H15.75ZM14.385 16.2275L14.7255 16.8958C15.337 16.5842 15.8342 16.087 16.1458 15.4755L15.4775 15.135L14.8093 14.7945C14.6415 15.1238 14.3738 15.3915 14.0445 15.5593L14.385 16.2275ZM8.25 1.5H7.5V11.5H8.25H9V1.5H8.25ZM8.25 1.5L9.31066 0.43934C8.72487 -0.146447 7.77513 -0.146447 7.18934 0.43934L8.25 1.5ZM11.5833 4.83333L12.644 3.77267L9.31066 0.43934L8.25 1.5L7.18934 2.56066L10.5227 5.89399L11.5833 4.83333ZM8.25 1.5L7.18934 0.43934L3.85601 3.77267L4.91667 4.83333L5.97733 5.89399L9.31066 2.56066L8.25 1.5Z" fill="#121212" mask="url(#path-1-outside-1_4903_12855)"/>
</svg>
