<svg width="20" height="20" viewBox="0 0 20 20" fill="none" xmlns="http://www.w3.org/2000/svg">
<path d="M9.75234 9.74891C9.33811 9.74891 9.00231 10.0847 9.00231 10.4989V10.5045C9.00231 10.9187 9.33811 11.2545 9.75234 11.2545H9.75797C10.1722 11.2545 10.508 10.9187 10.508 10.5045V10.4989C10.508 10.0847 10.1722 9.74891 9.75797 9.74891H9.75234Z" fill="#121212"/>
<path d="M9.75161 14.249C9.33738 14.249 9.00158 14.5847 9.00158 14.9989V15.0045C9.00158 15.4187 9.33738 15.7545 9.75161 15.7545H9.75723C10.1715 15.7545 10.5073 15.4187 10.5073 15.0045V14.9989C10.5073 14.5847 10.1715 14.249 9.75723 14.249H9.75161Z" fill="#121212"/>
<path d="M6.75081 14.9997C6.75081 14.5855 7.08661 14.2497 7.50084 14.2497H7.50647C7.9207 14.2497 8.2565 14.5855 8.2565 14.9997V15.0053C8.2565 15.4195 7.9207 15.7552 7.50647 15.7552H7.50084C7.08661 15.7552 6.75081 15.4195 6.75081 15.0053V14.9997Z" fill="#121212"/>
<path d="M5.25081 14.249C4.83658 14.249 4.50078 14.5847 4.50078 14.9989V15.0045C4.50078 15.4187 4.83658 15.7545 5.25081 15.7545H5.25643C5.67067 15.7545 6.00647 15.4187 6.00647 15.0045V14.9989C6.00647 14.5847 5.67067 14.249 5.25643 14.249H5.25081Z" fill="#121212"/>
<path d="M11.2509 12.7524C11.2509 12.3382 11.5867 12.0024 12.0009 12.0024H12.0065C12.4208 12.0024 12.7566 12.3382 12.7566 12.7524V12.758C12.7566 13.1722 12.4208 13.508 12.0065 13.508H12.0009C11.5867 13.508 11.2509 13.1722 11.2509 12.758V12.7524Z" fill="#121212"/>
<path d="M12.0016 14.2497C11.5874 14.2497 11.2516 14.5855 11.2516 14.9997V15.0053C11.2516 15.4195 11.5874 15.7552 12.0016 15.7552H12.0073C12.4215 15.7552 12.7573 15.4195 12.7573 15.0053V14.9997C12.7573 14.5855 12.4215 14.2497 12.0073 14.2497H12.0016Z" fill="#121212"/>
<path d="M13.5016 12.7509C13.5016 12.3367 13.8374 12.0009 14.2517 12.0009H14.2573C14.6715 12.0009 15.0073 12.3367 15.0073 12.7509V12.7565C15.0073 13.1707 14.6715 13.5065 14.2573 13.5065H14.2517C13.8374 13.5065 13.5016 13.1707 13.5016 12.7565V12.7509Z" fill="#121212"/>
<path d="M11.2501 10.4989C11.2501 10.0847 11.5859 9.74893 12.0001 9.74893H14.2501C14.6643 9.74893 15.0001 10.0847 15.0001 10.4989C15.0001 10.9131 14.6643 11.2489 14.2501 11.2489H12.0001C11.5859 11.2489 11.2501 10.9131 11.2501 10.4989Z" fill="#121212"/>
<path d="M4.50007 12.7489C4.50007 12.3347 4.83587 11.9989 5.2501 11.9989H9.7501C10.1643 11.9989 10.5001 12.3347 10.5001 12.7489C10.5001 13.1631 10.1643 13.4989 9.7501 13.4989H5.2501C4.83587 13.4989 4.50007 13.1631 4.50007 12.7489Z" fill="#121212"/>
<path fill-rule="evenodd" clip-rule="evenodd" d="M15.7519 0.749968C15.7519 0.335772 15.4161 0 15.0019 0C14.5876 0 14.2518 0.335772 14.2518 0.749968V2.24874H5.25159V0.751307C5.25159 0.337111 4.91578 0.00133886 4.50155 0.00133886C4.08732 0.00133886 3.75152 0.337111 3.75152 0.751307V2.24874H3.00013C1.3432 2.24874 0 3.59183 0 5.24861V16.4988C0 18.1556 1.34321 19.4987 3.00013 19.4987H16.4999C18.1569 19.4987 19.5001 18.1556 19.5001 16.4988V5.24861C19.5001 3.59183 18.1569 2.24874 16.4999 2.24874H15.7519V0.749968ZM1.50007 16.4988V8.99909C1.50007 8.1707 2.17167 7.49916 3.00013 7.49916H16.4999C17.3284 7.49916 18 8.1707 18 8.99909V16.4988C18 17.3272 17.3284 17.9987 16.4999 17.9987H3.00013C2.17167 17.9987 1.50007 17.3272 1.50007 16.4988Z" fill="#121212"/>
</svg>
