<svg width="12" height="12" viewBox="0 0 12 12" fill="none" xmlns="http://www.w3.org/2000/svg">
<path d="M2.84766 7.64922L3.54126 7.99602C3.87441 8.16258 4.24177 8.24927 4.61424 8.24922H8.54766C9.04471 8.24922 9.44766 7.84627 9.44766 7.34922V7.34922C9.44766 6.85216 9.04471 6.44922 8.54766 6.44922H6.07326" stroke="#121212" stroke-width="0.9" stroke-linecap="round" stroke-linejoin="round"/>
<path d="M3.14844 3.44922H4.59645C4.85609 3.44922 5.10873 3.53343 5.31645 3.68922L6.65881 4.69598C6.8847 4.8654 7.02595 5.1245 7.04597 5.40615C7.06598 5.68779 6.96279 5.96427 6.76314 6.16392V6.16392C6.42039 6.50667 5.87777 6.54523 5.49 6.2544L4.64844 5.62323" stroke="#121212" stroke-width="0.9" stroke-linecap="round" stroke-linejoin="round"/>
<path fill-rule="evenodd" clip-rule="evenodd" d="M5.84922 11.2492V11.2492C2.86662 11.2492 0.449219 8.83182 0.449219 5.84922V5.84922C0.449219 2.86662 2.86662 0.449219 5.84922 0.449219V0.449219C8.83182 0.449219 11.2492 2.86662 11.2492 5.84922V5.84922C11.2492 8.83182 8.83182 11.2492 5.84922 11.2492Z" stroke="#121212" stroke-width="0.9" stroke-linecap="round" stroke-linejoin="round"/>
</svg>
