<svg width="3" height="13" viewBox="0 0 3 13" fill="none" xmlns="http://www.w3.org/2000/svg">
<path d="M1.25 1.875C0.904822 1.875 0.625 1.59518 0.625 1.25C0.625 0.904822 0.904822 0.625 1.25 0.625C1.59518 0.625 1.875 0.904822 1.875 1.25C1.875 1.59518 1.59518 1.875 1.25 1.875Z" stroke="#121212" stroke-width="1.25" stroke-linecap="round" stroke-linejoin="round"/>
<path d="M1.25 6.875C0.904822 6.875 0.625 6.59518 0.625 6.25C0.625 5.90482 0.904822 5.625 1.25 5.625C1.59518 5.625 1.875 5.90482 1.875 6.25C1.875 6.59518 1.59518 6.875 1.25 6.875Z" stroke="#121212" stroke-width="1.25" stroke-linecap="round" stroke-linejoin="round"/>
<path d="M1.25 11.875C0.904822 11.875 0.625 11.5952 0.625 11.25C0.625 10.9048 0.904822 10.625 1.25 10.625C1.59518 10.625 1.875 10.9048 1.875 11.25C1.875 11.5952 1.59518 11.875 1.25 11.875Z" stroke="#121212" stroke-width="1.25" stroke-linecap="round" stroke-linejoin="round"/>
</svg>
