<svg width="20" height="20" viewBox="0 0 20 20" fill="none" xmlns="http://www.w3.org/2000/svg">
<path d="M8.09044 13.59C7.40153 13.5306 6.70431 13.5002 6 13.5002H5.25C2.76472 13.5002 0.75 11.4855 0.75 9.00024C0.75 6.51496 2.76472 4.50024 5.25 4.50024H6C6.70431 4.50024 7.40153 4.4699 8.09044 4.41046M8.09044 13.59C8.34329 14.5517 8.67372 15.482 9.07463 16.3737C9.32209 16.9241 9.13422 17.583 8.6116 17.8847L7.95529 18.2637C7.4039 18.582 6.6956 18.3808 6.42841 17.8029C5.8018 16.4476 5.31541 15.0141 4.98786 13.5212M8.09044 13.59C7.70517 12.1247 7.5 10.5865 7.5 9.00024C7.5 7.41403 7.70518 5.87574 8.09044 4.41046M8.09044 13.59C11.25 13.8626 14.2345 14.7474 16.9247 16.1252M8.09044 4.41046C11.25 4.13785 14.2345 3.25307 16.9247 1.87533M16.9247 1.87533C16.807 1.49619 16.6802 1.12108 16.5444 0.750244M16.9247 1.87533C17.4597 3.59852 17.8057 5.40487 17.9386 7.27016M16.9247 16.1252C16.807 16.5043 16.6802 16.8794 16.5444 17.2502M16.9247 16.1252C17.4597 14.402 17.8057 12.5956 17.9386 10.7303M17.9386 7.27016C18.4344 7.68288 18.75 8.30471 18.75 9.00024C18.75 9.69578 18.4344 10.3176 17.9386 10.7303M17.9386 7.27016C17.9793 7.84155 18 8.41848 18 9.00024C18 9.582 17.9793 10.1589 17.9386 10.7303" stroke="#121212" stroke-width="1.5" stroke-linecap="round" stroke-linejoin="round"/>
</svg>
