<svg width="19" height="20" viewBox="0 0 19 20" fill="none" xmlns="http://www.w3.org/2000/svg">
<path d="M6.93703 1.69005C7.02744 1.14759 7.49678 0.75 8.04673 0.75H10.6407C11.1906 0.75 11.66 1.14759 11.7504 1.69005L11.9639 2.9711C12.0262 3.34514 12.2762 3.65671 12.608 3.84036C12.6821 3.88142 12.7555 3.92383 12.8279 3.96757C13.1529 4.16384 13.5483 4.22486 13.9038 4.09166L15.1207 3.63578C15.6357 3.44284 16.2147 3.65051 16.4897 4.12677L17.7866 6.37321C18.0616 6.84948 17.952 7.45473 17.5274 7.80426L16.523 8.63108C16.2305 8.87188 16.0855 9.24372 16.0925 9.62253C16.0933 9.66492 16.0937 9.70742 16.0937 9.75C16.0937 9.79258 16.0933 9.83507 16.0925 9.87746C16.0855 10.2563 16.2305 10.6281 16.523 10.8689L17.5274 11.6957C17.952 12.0453 18.0616 12.6505 17.7866 13.1268L16.4897 15.3732C16.2147 15.8495 15.6357 16.0571 15.1207 15.8642L13.9038 15.4083C13.5483 15.2751 13.1529 15.3362 12.8279 15.5324C12.7555 15.5762 12.6822 15.6186 12.608 15.6596C12.2762 15.8433 12.0262 16.1549 11.9639 16.5289L11.7504 17.8099C11.66 18.3524 11.1906 18.75 10.6407 18.75H8.04673C7.49678 18.75 7.02744 18.3524 6.93703 17.8099L6.72353 16.5289C6.66118 16.1549 6.41121 15.8433 6.07944 15.6596C6.00527 15.6186 5.93195 15.5762 5.85952 15.5324C5.53448 15.3362 5.13915 15.2751 4.78359 15.4083L3.56672 15.8642C3.05173 16.0572 2.47274 15.8495 2.19777 15.3732L0.900784 13.1268C0.625812 12.6505 0.735466 12.0453 1.16005 11.6957L2.1644 10.8689C2.45691 10.6281 2.6019 10.2563 2.59489 9.87747C2.5941 9.83507 2.59371 9.79258 2.59371 9.75C2.59371 9.70742 2.5941 9.66493 2.59489 9.62254C2.6019 9.24373 2.4569 8.87189 2.1644 8.63109L1.16005 7.80427C0.735465 7.45475 0.625812 6.84949 0.900784 6.37323L2.19777 4.12679C2.47274 3.65052 3.05173 3.44286 3.56672 3.63579L4.78357 4.09167C5.13914 4.22487 5.53447 4.16385 5.8595 3.96758C5.93194 3.92384 6.00526 3.88142 6.07944 3.84036C6.41121 3.65671 6.66118 3.34514 6.72352 2.9711L6.93703 1.69005Z" stroke="#121212" stroke-width="1.5" stroke-linecap="round" stroke-linejoin="round"/>
<path d="M12.3435 9.74992C12.3435 11.4068 11.0003 12.7499 9.34348 12.7499C7.68662 12.7499 6.34348 11.4068 6.34348 9.74992C6.34348 8.09307 7.68662 6.74992 9.34348 6.74992C11.0003 6.74992 12.3435 8.09307 12.3435 9.74992Z" stroke="#121212" stroke-width="1.5" stroke-linecap="round" stroke-linejoin="round"/>
</svg>
