<svg width="20" height="20" viewBox="0 0 20 20" fill="none" xmlns="http://www.w3.org/2000/svg">
<path d="M7.62891 5.26884C8.80048 4.24372 10.7 4.24372 11.8715 5.26884C13.0431 6.29397 13.0431 7.95603 11.8715 8.98116C11.6676 9.15958 11.4417 9.30695 11.2013 9.42326C10.4556 9.78415 9.75023 10.4216 9.75023 11.25V12M18.75 9.75C18.75 14.7206 14.7206 18.75 9.75 18.75C4.77944 18.75 0.75 14.7206 0.75 9.75C0.75 4.77944 4.77944 0.75 9.75 0.75C14.7206 0.75 18.75 4.77944 18.75 9.75ZM9.75 15H9.7575V15.0075H9.75V15Z" stroke="#121212" stroke-width="1.5" stroke-linecap="round" stroke-linejoin="round"/>
</svg>
