<svg width="20" height="18" viewBox="0 0 20 18" fill="none" xmlns="http://www.w3.org/2000/svg">
<path d="M18.75 9C18.75 7.75736 17.7426 6.75 16.5 6.75H12.75C12.75 8.40685 11.4069 9.75 9.75 9.75C8.09315 9.75 6.75 8.40685 6.75 6.75H3C1.75736 6.75 0.75 7.75736 0.75 9M18.75 9V15C18.75 16.2426 17.7426 17.25 16.5 17.25H3C1.75736 17.25 0.75 16.2426 0.75 15V9M18.75 9V6M0.75 9V6M18.75 6C18.75 4.75736 17.7426 3.75 16.5 3.75H3C1.75736 3.75 0.75 4.75736 0.75 6M18.75 6V3C18.75 1.75736 17.7426 0.75 16.5 0.75H3C1.75736 0.75 0.75 1.75736 0.75 3V6" stroke="#121212" stroke-width="1.5" stroke-linecap="round" stroke-linejoin="round"/>
</svg>
